<?xml version="1.0" encoding="UTF-8" standalone="no"?>
<svg
   xmlns:dc="http://purl.org/dc/elements/1.1/"
   xmlns:cc="http://creativecommons.org/ns#"
   xmlns:rdf="http://www.w3.org/1999/02/22-rdf-syntax-ns#"
   xmlns:svg="http://www.w3.org/2000/svg"
   xmlns="http://www.w3.org/2000/svg"
   xmlns:sodipodi="http://sodipodi.sourceforge.net/DTD/sodipodi-0.dtd"
   xmlns:inkscape="http://www.inkscape.org/namespaces/inkscape"
   enable-background="new 0 0 512 512"
   height="512px"
   id="Layer_1"
   version="1.1"
   viewBox="0 0 512 512"
   width="512px"
   xml:space="preserve"
   inkscape:version="0.48.1 "
   sodipodi:docname="annotation_move.svg"
   inkscape:export-filename="C:\Users\perin\Documents\bertinProject\web\img\icon_annotation_bold.png"
   inkscape:export-xdpi="3.4200001"
   inkscape:export-ydpi="3.4200001"><metadata
   id="metadata295"><rdf:RDF><cc:Work
       rdf:about=""><dc:format>image/svg+xml</dc:format><dc:type
         rdf:resource="http://purl.org/dc/dcmitype/StillImage" /><dc:title /></cc:Work></rdf:RDF></metadata><defs
   id="defs293" /><sodipodi:namedview
   pagecolor="#ffffff"
   bordercolor="#666666"
   borderopacity="1"
   objecttolerance="10"
   gridtolerance="10"
   guidetolerance="10"
   inkscape:pageopacity="0"
   inkscape:pageshadow="2"
   inkscape:window-width="1920"
   inkscape:window-height="976"
   id="namedview291"
   showgrid="true"
   inkscape:zoom="0.65186406"
   inkscape:cx="-162.19641"
   inkscape:cy="217.50672"
   inkscape:window-x="1272"
   inkscape:window-y="-8"
   inkscape:window-maximized="1"
   inkscape:current-layer="Layer_1"
   inkscape:snap-grids="true"><inkscape:grid
     type="xygrid"
     id="grid2996" /></sodipodi:namedview>


<path
   style="fill:none;stroke:#000000;stroke-width:18;stroke-linecap:butt;stroke-linejoin:miter;stroke-miterlimit:4;stroke-opacity:1;stroke-dasharray:none"
   d="m 236,236 -90,0 0,-60 -20,0 -80,80 80,80 20,0 0,-60 90,0 0,90 -60,0 0,20 80,80 80,-80 0,-20 -60,0 0,-90 90,0 0,60 20,0 80,-80 -80,-80 -20,0 0,60 -90,0 0,-90 60,0 0,-20 -80,-80 -80,80 0,20 60,0 z"
   id="path2998"
   inkscape:connector-curvature="0" /></svg>