<?xml version="1.0" encoding="UTF-8" standalone="no"?>
<svg
   xmlns:dc="http://purl.org/dc/elements/1.1/"
   xmlns:cc="http://creativecommons.org/ns#"
   xmlns:rdf="http://www.w3.org/1999/02/22-rdf-syntax-ns#"
   xmlns:svg="http://www.w3.org/2000/svg"
   xmlns="http://www.w3.org/2000/svg"
   xmlns:sodipodi="http://sodipodi.sourceforge.net/DTD/sodipodi-0.dtd"
   xmlns:inkscape="http://www.inkscape.org/namespaces/inkscape"
   enable-background="new 0 0 512 512"
   height="512px"
   id="Layer_1"
   version="1.1"
   viewBox="0 0 512 512"
   width="512px"
   xml:space="preserve"
   inkscape:version="0.48.2 r9819"
   sodipodi:docname="icon_annotation_light.svg"
   inkscape:export-filename="C:\Users\perin\Documents\bertinProject\web\img\icon_annotation_light.png"
   inkscape:export-xdpi="3.4200001"
   inkscape:export-ydpi="3.4200001"><metadata
   id="metadata295"><rdf:RDF><cc:Work
       rdf:about=""><dc:format>image/svg+xml</dc:format><dc:type
         rdf:resource="http://purl.org/dc/dcmitype/StillImage" /><dc:title></dc:title></cc:Work></rdf:RDF></metadata><defs
   id="defs293" /><sodipodi:namedview
   pagecolor="#ffffff"
   bordercolor="#666666"
   borderopacity="1"
   objecttolerance="10"
   gridtolerance="10"
   guidetolerance="10"
   inkscape:pageopacity="0"
   inkscape:pageshadow="2"
   inkscape:window-width="1600"
   inkscape:window-height="1178"
   id="namedview291"
   showgrid="true"
   inkscape:zoom="0.921875"
   inkscape:cx="-12.193137"
   inkscape:cy="164.76044"
   inkscape:window-x="-30400"
   inkscape:window-y="-32000"
   inkscape:window-maximized="1"
   inkscape:current-layer="Layer_1"><inkscape:grid
     type="xygrid"
     id="grid2993" /></sodipodi:namedview><path
   style="font-size:500px;font-style:normal;font-variant:normal;font-weight:bold;font-stretch:normal;line-height:125%;letter-spacing:0px;word-spacing:0px;fill:#000000;fill-opacity:1;stroke:none;font-family:Times New Roman;-inkscape-font-specification:Times New Roman"
   d="m 256.50409,56.068261 c -2.73684,5.36007 -3.59722,11.515525 -6.79374,16.741222 C 202.7157,184.81907 157.08303,297.59929 109.06659,409.0505 c -8.46257,17.53041 -18.140826,37.1725 -36.374996,45.60304 -7.916955,2.35297 2.819158,1.10574 6.062433,1.383 20.531297,-0.023 41.062483,0.0968 61.593813,0.0612 -12.60458,-3.92569 -23.36962,-15.841 -22.40625,-30.00622 0.62789,-18.1553 10.13999,-34.20543 16.17915,-50.93912 7.72251,-18.57964 15.56638,-37.10571 23.32085,-55.67121 54.83333,0 109.66667,0 164.5,0 12.57635,35.21412 31.88347,68.28302 38.375,105.55129 0.92827,13.19966 -6.96447,26.71773 -19.28125,31.03317 33.70833,-0.0141 67.41671,0.0324 101.125,-0.032 -16.84683,-6.87661 -29.05206,-21.73461 -36.19395,-38.39589 C 387.61362,381.81847 375.23007,342.97924 358.90146,306.17742 324.77135,222.76055 291.26964,139.07167 256.62909,55.875708 l -0.125,0.192553 z m -13.65625,67.907119 c 25.7642,63.24695 51.7285,126.40776 77.46875,189.66498 -53.55208,0 -107.10417,0 -160.65625,0 27.10376,-64.71796 54.23884,-129.42215 81.375,-194.12579 0.60417,1.48694 1.20833,2.97387 1.8125,4.46081 z"
   id="text3272"
   inkscape:connector-curvature="0" />
</svg>