<?xml version="1.0" encoding="UTF-8" standalone="no"?>
<!-- Created with Inkscape (http://www.inkscape.org/) -->

<svg
   xmlns:dc="http://purl.org/dc/elements/1.1/"
   xmlns:cc="http://creativecommons.org/ns#"
   xmlns:rdf="http://www.w3.org/1999/02/22-rdf-syntax-ns#"
   xmlns:svg="http://www.w3.org/2000/svg"
   xmlns="http://www.w3.org/2000/svg"
   xmlns:sodipodi="http://sodipodi.sourceforge.net/DTD/sodipodi-0.dtd"
   xmlns:inkscape="http://www.inkscape.org/namespaces/inkscape"
   width="65.260002"
   height="65.629997"
   id="svg2"
   version="1.1"
   inkscape:version="0.48.1 "
   sodipodi:docname="magic_wand.svg">
  <defs
     id="defs4" />
  <sodipodi:namedview
     id="base"
     pagecolor="#ffffff"
     bordercolor="#666666"
     borderopacity="1.0"
     inkscape:pageopacity="0.0"
     inkscape:pageshadow="2"
     inkscape:zoom="5.6"
     inkscape:cx="88.472677"
     inkscape:cy="35.694787"
     inkscape:document-units="px"
     inkscape:current-layer="layer1"
     showgrid="true"
     inkscape:window-width="1920"
     inkscape:window-height="976"
     inkscape:window-x="1272"
     inkscape:window-y="-8"
     inkscape:window-maximized="1"
     inkscape:snap-grids="true">
    <inkscape:grid
       type="xygrid"
       id="grid2985"
       empspacing="5"
       visible="true"
       enabled="true"
       snapvisiblegridlinesonly="true" />
  </sodipodi:namedview>
  <metadata
     id="metadata7">
    <rdf:RDF>
      <cc:Work
         rdf:about="">
        <dc:format>image/svg+xml</dc:format>
        <dc:type
           rdf:resource="http://purl.org/dc/dcmitype/StillImage" />
        <dc:title />
      </cc:Work>
    </rdf:RDF>
  </metadata>
  <g
     inkscape:label="Calque 1"
     inkscape:groupmode="layer"
     id="layer1"
     transform="translate(0,-986.73217)">
    <g
       id="g3941"
       inkscape:export-filename="D:\documents\perso\boulot\these\bertinProject\web\img\setting-header-Texture-on.png"
       inkscape:export-xdpi="116.13"
       inkscape:export-ydpi="116.13">
      <g
         id="g3925"
         inkscape:export-filename="D:\documents\perso\boulot\these\bertinProject\web\img\magic_wand.png"
         inkscape:export-xdpi="109.09"
         inkscape:export-ydpi="109.09"
         transform="translate(-4,-17)">
        <g
           id="g3936"
           inkscape:export-filename="D:\documents\perso\boulot\these\bertinProject\web\img\magic_wand.png"
           inkscape:export-xdpi="109.09"
           inkscape:export-ydpi="109.09">
          <g
             id="g3913"
             transform="translate(-254.34435,925.22243)">
            <path
               inkscape:connector-curvature="0"
               id="path3825"
               d="m 296.03107,99.763611 -6.63864,7.056329 -8.35164,-4.892 4.67961,8.47058 -7.22395,6.44781 9.51493,-1.84701 3.86874,8.86056 0.88884,-7.2646 28.01294,27.04447 2.32244,-2.4056 -28.12536,-27.15301 7.72191,-0.75464 -8.75782,-4.11135 2.088,-9.451539 z m -2.44204,14.452489 -0.60774,0.6295 0.0783,-0.57599 0.52947,-0.0535 z"
               style="color:#000000;fill:#ffffff;fill-opacity:1;fill-rule:evenodd;stroke:#000000;stroke-width:1;stroke-opacity:1;marker:none;visibility:visible;display:inline;overflow:visible;enable-background:accumulate" />
            <path
               inkscape:connector-curvature="0"
               id="path3825-5"
               d="m 295.94496,99.174109 -6.63864,7.056331 -8.35164,-4.892 4.67961,8.47058 -7.22395,6.44781 9.51493,-1.84701 3.86874,8.86056 0.88884,-7.2646 28.01294,27.04447 2.32244,-2.4056 -28.12536,-27.15301 7.72191,-0.75464 -8.75782,-4.11135 2.088,-9.451541 z m -2.44204,14.452491 -0.60774,0.6295 0.0783,-0.57599 0.52947,-0.0535 z"
               style="color:#000000;fill:#ffffff;fill-opacity:1;fill-rule:evenodd;stroke:#000000;stroke-width:1;stroke-opacity:1;marker:none;visibility:visible;display:inline;overflow:visible;enable-background:accumulate" />
            <path
               transform="matrix(0.27835547,0.96047813,-0.96047813,0.27835547,284.63124,-175.4019)"
               style="color:#000000;fill:#ffffff;fill-opacity:1;fill-rule:evenodd;stroke:#000000;stroke-width:0.5;stroke-linecap:butt;stroke-linejoin:round;stroke-miterlimit:4;stroke-opacity:1;stroke-dashoffset:9.9;marker:none;visibility:visible;display:inline;overflow:visible;enable-background:accumulate"
               inkscape:transform-center-x="0.22806553"
               inkscape:transform-center-y="0.79961154"
               d="m 253.37263,72.262557 -3.48663,-1.702539 -2.06696,3.283729 0.54178,-3.842096 -3.76174,-0.951075 3.82147,-0.672006 -0.25792,-3.871526 1.82002,3.426773 3.60234,-1.441659 -2.69664,2.789868 z"
               id="path3872"
               inkscape:connector-curvature="0" />
            <path
               transform="matrix(0.90690635,-0.42133226,0.42133226,0.90690635,11.863687,140.90647)"
               style="color:#000000;fill:#ffffff;fill-opacity:1;fill-rule:evenodd;stroke:#000000;stroke-width:0.5;stroke-linecap:butt;stroke-linejoin:round;stroke-miterlimit:4;stroke-opacity:1;stroke-dashoffset:9.9;marker:none;visibility:visible;display:inline;overflow:visible;enable-background:accumulate"
               inkscape:transform-center-x="-0.99942736"
               inkscape:transform-center-y="0.06977867"
               d="m 253.37263,72.262557 -3.48663,-1.702539 -2.06696,3.283729 0.54178,-3.842096 -3.76174,-0.951075 3.82147,-0.672006 -0.25792,-3.871526 1.82002,3.426773 3.60234,-1.441659 -2.69664,2.789868 z"
               id="path3872-5"
               inkscape:connector-curvature="0" />
            <path
               transform="matrix(0.89524496,0.4455743,-0.4455743,0.89524496,70.385423,-53.218866)"
               style="color:#000000;fill:#ffffff;fill-opacity:1;fill-rule:evenodd;stroke:#000000;stroke-width:0.5;stroke-linecap:butt;stroke-linejoin:round;stroke-miterlimit:4;stroke-opacity:1;stroke-dashoffset:9.9;marker:none;visibility:visible;display:inline;overflow:visible;enable-background:accumulate"
               inkscape:transform-center-x="-1.0387747"
               inkscape:transform-center-y="0.31243049"
               d="m 253.37263,72.262557 -3.48663,-1.702539 -2.06696,3.283729 0.54178,-3.842096 -3.76174,-0.951075 3.82147,-0.672006 -0.25792,-3.871526 1.82002,3.426773 3.60234,-1.441659 -2.69664,2.789868 z"
               id="path3872-54"
               inkscape:connector-curvature="0" />
            <path
               transform="matrix(0.0034103,0.99999418,-0.99999418,0.0034103,377.76511,-158.45091)"
               style="color:#000000;fill:#ffffff;fill-opacity:1;fill-rule:evenodd;stroke:#000000;stroke-width:0.5;stroke-linecap:butt;stroke-linejoin:round;stroke-miterlimit:4;stroke-opacity:1;stroke-dashoffset:9.9;marker:none;visibility:visible;display:inline;overflow:visible;enable-background:accumulate"
               inkscape:transform-center-x="0.062918457"
               inkscape:transform-center-y="0.4872159"
               d="m 253.37263,72.262557 -3.48663,-1.702539 -2.06696,3.283729 0.54178,-3.842096 -3.76174,-0.951075 3.82147,-0.672006 -0.25792,-3.871526 1.82002,3.426773 3.60234,-1.441659 -2.69664,2.789868 z"
               id="path3872-3"
               inkscape:connector-curvature="0" />
            <path
               transform="matrix(0.5575994,-0.83011018,0.83011018,0.5575994,88.000372,299.87972)"
               style="color:#000000;fill:#ffffff;fill-opacity:1;fill-rule:evenodd;stroke:#000000;stroke-width:0.5;stroke-linecap:butt;stroke-linejoin:round;stroke-miterlimit:4;stroke-opacity:1;stroke-dashoffset:9.9;marker:none;visibility:visible;display:inline;overflow:visible;enable-background:accumulate"
               inkscape:transform-center-x="-0.60276718"
               inkscape:transform-center-y="-1.1572122"
               d="m 253.37263,72.262557 -3.48663,-1.702539 -2.06696,3.283729 0.54178,-3.842096 -3.76174,-0.951075 3.82147,-0.672006 -0.25792,-3.871526 1.82002,3.426773 3.60234,-1.441659 -2.69664,2.789868 z"
               id="path3872-0"
               inkscape:connector-curvature="0" />
          </g>
        </g>
      </g>
    </g>
  </g>
</svg>
